<svg width="24" height="23" viewBox="0 0 24 23" fill="none" xmlns="http://www.w3.org/2000/svg">
<path d="M18.1513 0.957031H6.65525C3.47926 0.957031 0.895508 3.54154 0.895508 6.71847V17.2388C0.895508 20.4157 3.47926 23.0002 6.65525 23.0002H18.1513C21.3273 23.0002 23.911 20.4157 23.911 17.2388V6.71847C23.911 3.54154 21.3273 0.957031 18.1513 0.957031ZM2.92736 6.71847C2.92736 4.66258 4.59997 2.98947 6.65525 2.98947H18.1513C20.2066 2.98947 21.8792 4.66258 21.8792 6.71847V17.2388C21.8792 19.2947 20.2066 20.9678 18.1513 20.9678H6.65525C4.59997 20.9678 2.92736 19.2947 2.92736 17.2388V6.71847Z" fill="#4E3ACF"/>
<path d="M12.4034 17.3364C15.3569 17.3364 17.761 14.9329 17.761 11.9773C17.761 9.02168 15.3582 6.61816 12.4034 6.61816C9.44872 6.61816 7.0459 9.02168 7.0459 11.9773C7.0459 14.9329 9.44872 17.3364 12.4034 17.3364ZM12.4034 8.6519C14.2374 8.6519 15.7291 10.144 15.7291 11.9786C15.7291 13.8131 14.2374 15.3052 12.4034 15.3052C10.5694 15.3052 9.07776 13.8131 9.07776 11.9786C9.07776 10.144 10.5694 8.6519 12.4034 8.6519Z" fill="#4E3ACF"/>
<path d="M18.257 7.48406C19.0523 7.48406 19.7005 6.83698 19.7005 6.04014C19.7005 5.24331 19.0536 4.59619 18.257 4.59619C17.4604 4.59619 16.8135 5.24331 16.8135 6.04014C16.8135 6.83698 17.4604 7.48406 18.257 7.48406Z" fill="#4E3ACF"/>
</svg>
