<svg width="21" height="22" viewBox="0 0 21 22" fill="none" xmlns="http://www.w3.org/2000/svg">
<path d="M0.834369 4.74998C0.344953 4.29557 0.101562 3.7331 0.101562 3.06387C0.101562 2.39463 0.346255 1.8074 0.834369 1.35169C1.32378 0.897286 1.95378 0.669434 2.72565 0.669434C3.49752 0.669434 4.10279 0.897286 4.59091 1.35169C5.08032 1.8061 5.32371 2.3777 5.32371 3.06387C5.32371 3.75003 5.07902 4.29557 4.59091 4.74998C4.10149 5.20438 3.4806 5.43223 2.72565 5.43223C1.9707 5.43223 1.32378 5.20438 0.834369 4.74998ZM4.91241 7.35662V21.2882H0.511565V7.35662H4.91241Z" fill="#4E3ACF"/>
<path d="M19.5622 8.73283C20.5215 9.77445 21.0005 11.2041 21.0005 13.0243V21.0421H16.821V13.5894C16.821 12.6715 16.5828 11.958 16.1077 11.4502C15.6326 10.9424 14.9922 10.6872 14.1904 10.6872C13.3886 10.6872 12.7481 10.9411 12.273 11.4502C11.7979 11.958 11.5597 12.6715 11.5597 13.5894V21.0421H7.35547V7.31755H11.5597V9.13778C11.9854 8.53104 12.5594 8.05189 13.2805 7.69904C14.0016 7.34619 14.8125 7.17041 15.7146 7.17041C17.3208 7.17041 18.6042 7.69122 19.5622 8.73283Z" fill="#4E3ACF"/>
</svg>
