<svg width="109" height="49" viewBox="0 0 109 49" fill="none" xmlns="http://www.w3.org/2000/svg">
<path d="M0.19 40V38.29L1.748 38.024C2.204 37.9227 2.55867 37.7453 2.812 37.492C3.06533 37.2387 3.33133 36.732 3.61 35.972L11.628 12.982H16.302L24.32 36.01C24.5733 36.7193 24.8013 37.2007 25.004 37.454C25.2067 37.7073 25.574 37.8847 26.106 37.986L27.474 38.29V40H16.074V38.29L17.974 38.062C18.4553 37.986 18.7467 37.8087 18.848 37.53C18.9747 37.226 18.9367 36.7573 18.734 36.124L17.176 31.26H7.714L6.156 35.972C5.95333 36.5293 5.89 36.998 5.966 37.378C6.06733 37.758 6.44733 37.986 7.106 38.062L9.044 38.366V40H0.19ZM8.398 29.284H16.568L12.616 16.972H12.502L8.398 29.284ZM33.945 40.532C31.9183 40.532 30.373 39.9747 29.309 38.86C28.2703 37.72 27.751 36.0733 27.751 33.92V24.876C27.751 24.04 27.675 23.47 27.523 23.166C27.3963 22.862 27.0543 22.672 26.497 22.596L25.091 22.406L25.281 20.696L32.349 20.278L32.805 20.544V33.198C32.805 34.3127 32.8937 35.1993 33.071 35.858C33.2737 36.4913 33.603 36.96 34.059 37.264C34.515 37.5427 35.1103 37.682 35.845 37.682C36.7317 37.682 37.479 37.492 38.087 37.112C38.7203 36.7067 39.2017 36.1493 39.531 35.44C39.8857 34.7053 40.063 33.844 40.063 32.856V24.876C40.063 24.0147 39.987 23.4447 39.835 23.166C39.7083 22.862 39.3663 22.672 38.809 22.596L37.441 22.406L37.707 20.696L44.661 20.278L45.117 20.544V36.2C45.117 36.8587 45.193 37.3273 45.345 37.606C45.5223 37.8593 45.8517 38.024 46.333 38.1L48.005 38.328L47.967 40L40.899 40.304L40.367 36.96H40.253C39.7463 37.7453 39.189 38.404 38.581 38.936C37.973 39.468 37.289 39.8607 36.529 40.114C35.7943 40.3927 34.933 40.532 33.945 40.532ZM56.72 48.74C55.124 48.74 53.7434 48.6387 52.578 48.436C51.4127 48.2333 50.45 47.9293 49.69 47.524C48.9554 47.1187 48.4107 46.6247 48.056 46.042C47.7014 45.4593 47.524 44.788 47.524 44.028C47.524 43.3187 47.676 42.698 47.98 42.166C48.3094 41.634 48.778 41.178 49.386 40.798C49.994 40.418 50.7287 40.1013 51.59 39.848V39.696C50.6274 39.468 49.9054 39.0627 49.424 38.48C48.968 37.872 48.74 37.226 48.74 36.542C48.74 35.8327 48.9174 35.1867 49.272 34.604C49.652 33.996 50.3107 33.2487 51.248 32.362V32.248C50.336 31.7413 49.6267 31.0573 49.12 30.196C48.6134 29.3347 48.36 28.2707 48.36 27.004C48.36 25.5093 48.7274 24.2427 49.462 23.204C50.222 22.1653 51.248 21.38 52.54 20.848C53.8574 20.2907 55.352 20.012 57.024 20.012C57.6067 20.012 58.202 20.0627 58.81 20.164C59.4434 20.24 60.0514 20.3667 60.634 20.544C61.242 20.7213 61.7994 20.962 62.306 21.266C62.7874 19.9487 63.3574 18.91 64.016 18.15C64.6747 17.39 65.4854 17.01 66.448 17.01C66.9547 17.01 67.4107 17.1113 67.816 17.314C68.2214 17.4913 68.5507 17.7573 68.804 18.112C69.0574 18.4667 69.184 18.8847 69.184 19.366C69.184 19.9993 68.956 20.5693 68.5 21.076C68.0694 21.5573 67.512 21.798 66.828 21.798C66.448 21.798 66.1187 21.6967 65.84 21.494C65.5614 21.2913 65.3207 21.0127 65.118 20.658L64.624 19.784C64.396 20.1387 64.1934 20.506 64.016 20.886C63.864 21.2407 63.6994 21.646 63.522 22.102C64.1047 22.71 64.586 23.4067 64.966 24.192C65.346 24.9773 65.536 25.8513 65.536 26.814C65.536 28.1313 65.194 29.3093 64.51 30.348C63.826 31.3613 62.8507 32.1593 61.584 32.742C60.3427 33.3247 58.848 33.616 57.1 33.616C56.3147 33.616 55.58 33.5653 54.896 33.464C54.212 33.3373 53.6294 33.1853 53.148 33.008C52.7934 33.4133 52.5274 33.7553 52.35 34.034C52.1727 34.3127 52.084 34.604 52.084 34.908C52.084 35.288 52.1854 35.6047 52.388 35.858C52.616 36.086 52.9327 36.2507 53.338 36.352C53.7434 36.428 54.2627 36.466 54.896 36.466H60.71C63.142 36.466 64.9534 36.884 66.144 37.72C67.3347 38.5307 67.93 39.7847 67.93 41.482C67.93 42.242 67.8034 42.9767 67.55 43.686C67.2967 44.3953 66.904 45.054 66.372 45.662C65.84 46.27 65.1307 46.802 64.244 47.258C63.3827 47.7393 62.3187 48.1067 61.052 48.36C59.8107 48.6133 58.3667 48.74 56.72 48.74ZM57.138 46.65C58.3287 46.65 59.342 46.4853 60.178 46.156C61.0394 45.852 61.698 45.4213 62.154 44.864C62.61 44.3067 62.838 43.6607 62.838 42.926C62.838 42.09 62.5594 41.482 62.002 41.102C61.47 40.722 60.6594 40.532 59.57 40.532H53.49C53.034 40.8867 52.6794 41.3173 52.426 41.824C52.198 42.3307 52.084 42.85 52.084 43.382C52.084 44.522 52.4894 45.3453 53.3 45.852C54.1107 46.384 55.39 46.65 57.138 46.65ZM56.986 31.602C58.126 31.602 58.9874 31.2093 59.57 30.424C60.1527 29.6133 60.444 28.448 60.444 26.928C60.444 25.256 60.1274 24.002 59.494 23.166C58.8607 22.33 57.9614 21.912 56.796 21.912C55.656 21.912 54.8074 22.33 54.25 23.166C53.718 24.002 53.452 25.1927 53.452 26.738C53.452 28.258 53.7687 29.4487 54.402 30.31C55.0354 31.1713 55.8967 31.602 56.986 31.602ZM76.4397 40.532C74.413 40.532 72.8677 39.9747 71.8037 38.86C70.765 37.72 70.2457 36.0733 70.2457 33.92V24.876C70.2457 24.04 70.1697 23.47 70.0177 23.166C69.891 22.862 69.549 22.672 68.9917 22.596L67.5857 22.406L67.7757 20.696L74.8437 20.278L75.2997 20.544V33.198C75.2997 34.3127 75.3883 35.1993 75.5657 35.858C75.7683 36.4913 76.0977 36.96 76.5537 37.264C77.0097 37.5427 77.605 37.682 78.3397 37.682C79.2263 37.682 79.9737 37.492 80.5817 37.112C81.215 36.7067 81.6963 36.1493 82.0257 35.44C82.3803 34.7053 82.5577 33.844 82.5577 32.856V24.876C82.5577 24.0147 82.4817 23.4447 82.3297 23.166C82.203 22.862 81.861 22.672 81.3037 22.596L79.9357 22.406L80.2017 20.696L87.1557 20.278L87.6117 20.544V36.2C87.6117 36.8587 87.6877 37.3273 87.8397 37.606C88.017 37.8593 88.3463 38.024 88.8277 38.1L90.4997 38.328L90.4617 40L83.3937 40.304L82.8617 36.96H82.7477C82.241 37.7453 81.6837 38.404 81.0757 38.936C80.4677 39.468 79.7837 39.8607 79.0237 40.114C78.289 40.3927 77.4277 40.532 76.4397 40.532ZM90.8918 40V38.366L92.5258 38.1C92.9312 38.024 93.1972 37.872 93.3238 37.644C93.4505 37.3907 93.5138 36.9347 93.5138 36.276V24.952C93.5138 24.0907 93.4378 23.508 93.2858 23.204C93.1338 22.8747 92.7792 22.6847 92.2218 22.634L90.5498 22.406L90.7398 20.696L97.5038 20.278L97.9218 20.544L98.1498 24.192H98.2638C98.8718 22.8493 99.6825 21.8233 100.696 21.114C101.709 20.3793 102.811 20.012 104.002 20.012C105.294 20.012 106.32 20.3667 107.08 21.076C107.84 21.7853 108.22 22.7227 108.22 23.888C108.22 24.572 108.106 25.1673 107.878 25.674C107.675 26.1807 107.359 26.5733 106.928 26.852C106.497 27.1053 105.94 27.232 105.256 27.232C104.42 27.232 103.787 27.0547 103.356 26.7C102.925 26.32 102.71 25.864 102.71 25.332C102.71 25.104 102.748 24.876 102.824 24.648C102.9 24.3947 103.014 24.116 103.166 23.812C103.343 23.4827 103.559 23.1027 103.812 22.672C103.229 22.444 102.621 22.4187 101.988 22.596C101.38 22.748 100.81 23.0773 100.278 23.584C99.7712 24.0907 99.3532 24.7113 99.0238 25.446C98.6945 26.1807 98.5298 27.004 98.5298 27.916V36.352C98.5298 36.9347 98.5932 37.3527 98.7198 37.606C98.8465 37.834 99.1252 37.9733 99.5558 38.024L102.444 38.366V40H90.8918Z" fill="#4E3ACF"/>
</svg>
